<?xml version="1.0" encoding="iso-8859-1"?>
<!-- Generator: Adobe Illustrator 19.0.0, SVG Export Plug-In . SVG Version: 6.00 Build 0)  -->
<svg version="1.1" id="Layer_1" xmlns="http://www.w3.org/2000/svg" xmlns:xlink="http://www.w3.org/1999/xlink" x="0px" y="0px"
	 viewBox="0 0 512 512" style="enable-background:new 0 0 512 512;" xml:space="preserve">
<g>
	<g>
		<path d="M446.954,433.275l24.133-24.133c3.333-3.333,3.333-8.733,0-12.067l-24.137-24.142c-3.2-3.2-8.867-3.2-12.067,0
			l-24.138,24.142l-24.133-24.142c-3.2-3.2-8.867-3.2-12.067,0l-24.138,24.142c-3.333,3.333-3.333,8.733,0,12.067l24.133,24.133
			l-24.133,24.133c-3.333,3.333-3.333,8.733,0,12.067l24.138,24.142c3.2,3.2,8.867,3.2,12.067,0l24.133-24.142l24.138,24.142
			c1.6,1.6,3.771,2.5,6.033,2.5c2.263,0,4.433-0.9,6.034-2.5l24.137-24.142c3.333-3.333,3.333-8.733,0-12.067L446.954,433.275z
			 M440.917,475.517l-24.137-24.142c-1.6-1.6-3.771-2.5-6.034-2.5c-2.262,0-4.433,0.9-6.033,2.5l-24.133,24.142l-12.071-12.075
			l24.138-24.133c1.6-1.6,2.5-3.767,2.5-6.033s-0.9-4.433-2.5-6.034l-24.138-24.133l12.071-12.075l24.133,24.142
			c1.6,1.6,3.771,2.5,6.033,2.5c2.263,0,4.433-0.9,6.034-2.5l24.137-24.142l12.071,12.075l-24.137,24.133
			c-1.6,1.6-2.5,3.767-2.5,6.034s0.9,4.433,2.5,6.033l24.137,24.133L440.917,475.517z"/>
	</g>
</g>
<g>
	<g>
		<path d="M406.371,0H65.121C50.983,0,38.412,10.4,38.412,24.5v460.867c0,14.1,12.542,26.633,26.65,26.633h257.158
			c4.712,0,8.533-3.817,8.533-8.533s-3.821-8.533-8.533-8.533H65.063c-4.696,0-9.583-4.883-9.583-9.567V24.5
			c0-4.683,4.912-7.433,9.642-7.433h341.25c4.65,0,7.508,2.808,7.508,7.4V323.2c0,4.717,3.821,8.533,8.533,8.533
			s8.533-3.817,8.533-8.533V24.467C430.946,10.392,420.508,0,406.371,0z"/>
	</g>
</g>
<g>
	<g>
		<path d="M278.412,59.733h-85.333c-4.713,0-8.533,3.817-8.533,8.533c0,4.717,3.821,8.533,8.533,8.533h85.333
			c4.713,0,8.533-3.817,8.533-8.533C286.946,63.55,283.125,59.733,278.412,59.733z"/>
	</g>
</g>
<g>
	<g>
		<path d="M355.212,119.467H116.279c-4.713,0-8.533,3.817-8.533,8.533c0,4.717,3.821,8.533,8.533,8.533h238.933
			c4.713,0,8.533-3.817,8.533-8.533C363.746,123.283,359.925,119.467,355.212,119.467z"/>
	</g>
</g>
<g>
	<g>
		<path d="M355.212,179.2H116.279c-4.713,0-8.533,3.817-8.533,8.533c0,4.717,3.821,8.533,8.533,8.533h238.933
			c4.713,0,8.533-3.817,8.533-8.533C363.746,183.017,359.925,179.2,355.212,179.2z"/>
	</g>
</g>
<g>
	<g>
		<path d="M355.212,238.933H116.279c-4.713,0-8.533,3.817-8.533,8.533c0,4.717,3.821,8.533,8.533,8.533h238.933
			c4.713,0,8.533-3.817,8.533-8.533C363.746,242.75,359.925,238.933,355.212,238.933z"/>
	</g>
</g>
<g>
	<g>
		<path d="M355.212,298.667H116.279c-4.713,0-9.6,2.75-9.6,7.467v128c0,4.717,4.887,9.6,9.6,9.6h187.733
			c4.713,0,8.533-3.817,8.533-8.533s-3.821-8.533-8.533-8.533H123.746V315.733h221.867v50.133c0,4.717,3.821,8.533,8.533,8.533
			s8.533-3.817,8.533-8.533v-59.733C362.679,301.417,359.925,298.667,355.212,298.667z"/>
	</g>
</g>
<g>
</g>
<g>
</g>
<g>
</g>
<g>
</g>
<g>
</g>
<g>
</g>
<g>
</g>
<g>
</g>
<g>
</g>
<g>
</g>
<g>
</g>
<g>
</g>
<g>
</g>
<g>
</g>
<g>
</g>
</svg>
