<?xml version="1.0" encoding="iso-8859-1"?>
<!-- Generator: Adobe Illustrator 19.0.0, SVG Export Plug-In . SVG Version: 6.00 Build 0)  -->
<svg version="1.1" id="Layer_1" xmlns="http://www.w3.org/2000/svg" xmlns:xlink="http://www.w3.org/1999/xlink" x="0px" y="0px"
	 viewBox="0 0 512 512" style="enable-background:new 0 0 512 512;" xml:space="preserve">
<g>
	<g>
		<path d="M501.801,97.049H50.584c-5.632,0-10.199,4.566-10.199,10.199v31.325H10.199C4.567,138.574,0,143.14,0,148.773v255.979
			c0,5.633,4.567,10.199,10.199,10.199h451.217c5.632,0,10.199-4.566,10.199-10.199v-31.325h30.186
			c5.632,0,10.199-4.566,10.199-10.199V107.249C512,101.616,507.433,97.049,501.801,97.049z M451.218,394.552L451.218,394.552
			H20.398v-235.58h19.986v204.255c0,5.633,4.567,10.199,10.199,10.199h400.634V394.552z M491.602,353.028H60.783v-235.58h430.818
			V353.028z"/>
	</g>
</g>
<g>
	<g>
		<path d="M449.691,287.085H326.678c-5.632,0-10.199,4.566-10.199,10.199c0,5.633,4.566,10.199,10.199,10.199h123.013
			c5.632,0,10.199-4.566,10.199-10.199C459.89,291.651,455.323,287.085,449.691,287.085z"/>
	</g>
</g>
<g>
	<g>
		<path d="M449.691,226.976H326.678c-5.632,0-10.199,4.566-10.199,10.199c0,5.633,4.566,10.199,10.199,10.199h123.013
			c5.632,0,10.199-4.566,10.199-10.199C459.89,231.542,455.323,226.976,449.691,226.976z"/>
	</g>
</g>
<g>
	<g>
		<path d="M450.198,166.867h-7.373c-5.632,0-10.199,4.566-10.199,10.199c0,5.633,4.566,10.199,10.199,10.199h7.373
			c5.632,0,10.199-4.566,10.199-10.199C460.397,171.433,455.83,166.867,450.198,166.867z"/>
	</g>
</g>
<g>
	<g>
		<path d="M407.251,166.867h-80.573c-5.632,0-10.199,4.566-10.199,10.199c0,5.633,4.566,10.199,10.199,10.199h80.573
			c5.632,0,10.199-4.566,10.199-10.199C417.45,171.433,412.883,166.867,407.251,166.867z"/>
	</g>
</g>
<g>
	<g>
		<path d="M246.821,140.592H125.45c-5.632,0-10.199,4.566-10.199,10.199v169.307c0,5.633,4.567,10.199,10.199,10.199h121.371
			c5.632,0,10.199-4.566,10.199-10.199V150.791C257.02,145.158,252.453,140.592,246.821,140.592z M236.622,309.899h-18.359V294.6
			c0-5.633-4.567-10.199-10.199-10.199c-5.632,0-10.199,4.566-10.199,10.199v15.299h-62.215V160.99h100.972V309.899z"/>
	</g>
</g>
<g>
	<g>
		<path d="M168.287,178.329h-5.1c-5.632,0-10.199,4.566-10.199,10.199s4.567,10.199,10.199,10.199h5.1
			c5.632,0,10.199-4.566,10.199-10.199S173.919,178.329,168.287,178.329z"/>
	</g>
</g>
<g>
	<g>
		<path d="M209.084,178.329h-5.1c-5.632,0-10.199,4.566-10.199,10.199s4.567,10.199,10.199,10.199h5.1
			c5.632,0,10.199-4.566,10.199-10.199S214.716,178.329,209.084,178.329z"/>
	</g>
</g>
<g>
	<g>
		<path d="M168.287,207.907h-5.1c-5.632,0-10.199,4.566-10.199,10.199c0,5.633,4.567,10.199,10.199,10.199h5.1
			c5.632,0,10.199-4.566,10.199-10.199C178.486,212.473,173.919,207.907,168.287,207.907z"/>
	</g>
</g>
<g>
	<g>
		<path d="M209.084,207.907h-5.1c-5.632,0-10.199,4.566-10.199,10.199c0,5.633,4.567,10.199,10.199,10.199h5.1
			c5.632,0,10.199-4.566,10.199-10.199C219.283,212.473,214.716,207.907,209.084,207.907z"/>
	</g>
</g>
<g>
	<g>
		<path d="M168.287,236.464h-5.1c-5.632,0-10.199,4.566-10.199,10.199c0,5.633,4.567,10.199,10.199,10.199h5.1
			c5.632,0,10.199-4.566,10.199-10.199C178.486,241.031,173.919,236.464,168.287,236.464z"/>
	</g>
</g>
<g>
	<g>
		<path d="M209.084,236.464h-5.1c-5.632,0-10.199,4.566-10.199,10.199c0,5.633,4.567,10.199,10.199,10.199h5.1
			c5.632,0,10.199-4.566,10.199-10.199C219.283,241.031,214.716,236.464,209.084,236.464z"/>
	</g>
</g>
<g>
</g>
<g>
</g>
<g>
</g>
<g>
</g>
<g>
</g>
<g>
</g>
<g>
</g>
<g>
</g>
<g>
</g>
<g>
</g>
<g>
</g>
<g>
</g>
<g>
</g>
<g>
</g>
<g>
</g>
</svg>
