<?xml version="1.0" encoding="iso-8859-1"?>
<!-- Generator: Adobe Illustrator 19.0.0, SVG Export Plug-In . SVG Version: 6.00 Build 0)  -->
<svg version="1.1" id="Layer_1" xmlns="http://www.w3.org/2000/svg" xmlns:xlink="http://www.w3.org/1999/xlink" x="0px" y="0px"
	 viewBox="0 0 512 512" style="enable-background:new 0 0 512 512;" xml:space="preserve">
<g>
	<g>
		<circle cx="219.328" cy="61.668" r="15.219"/>
	</g>
</g>
<g>
	<g>
		<rect x="95.632" y="164.668" width="247.393" height="30.417"/>
	</g>
</g>
<g>
	<g>
		<rect x="95.632" y="215.364" width="247.393" height="30.417"/>
	</g>
</g>
<g>
	<g>
		<rect x="95.632" y="405.552" width="123.696" height="30.417"/>
	</g>
</g>
<g>
	<g>
		<polygon points="424.907,310.842 379.509,356.24 363.213,339.944 341.705,361.453 379.509,399.255 446.414,332.35 		"/>
	</g>
</g>
<g>
	<g>
		<path d="M409.269,275.099V76.162h-66.242V47.395h-62.963C273.252,20.201,248.606,0,219.33,0s-53.923,20.201-60.734,47.395H95.634
			v28.767H29.391V512h379.878v-76.028h73.34V275.099H409.269z M126.051,77.812h61.094V62.604c0-17.747,14.438-32.186,32.185-32.186
			c17.747,0,32.185,14.439,32.185,32.186v15.209h61.094v27.117H126.051V77.812z M378.852,481.583H59.808V106.579h35.825v28.768
			h247.393v-28.768h35.825v168.52h-73.34v160.873h73.34V481.583z M452.192,405.554h-42.923h-73.34V305.515h73.34h42.923V405.554z"/>
	</g>
</g>
<g>
</g>
<g>
</g>
<g>
</g>
<g>
</g>
<g>
</g>
<g>
</g>
<g>
</g>
<g>
</g>
<g>
</g>
<g>
</g>
<g>
</g>
<g>
</g>
<g>
</g>
<g>
</g>
<g>
</g>
</svg>
